<svg xmlns="http://www.w3.org/2000/svg" viewBox="0 0 48 60" x="0px" y="0px"><path d="M42.21,10.26c-.37-.17-.78-.26-1.21-.26H7c-.43,0-.84,.1-1.21,.26L24,26.65,42.21,10.26Z"/><path d="M24.67,28.74c-.19,.17-.43,.26-.67,.26s-.48-.09-.67-.26L4.34,11.65c-.21,.41-.34,.86-.34,1.35v22c0,1.65,1.35,3,3,3H41c1.65,0,3-1.35,3-3V13c0-.49-.13-.94-.34-1.35L24.67,28.74Z"/><text x="0" y="63" fill="#000000" font-size="5px" font-weight="bold" font-family="'Helvetica Neue', Helvetica, Arial-Unicode, Arial, Sans-serif">Created by Branken Spin</text><text x="0" y="68" fill="#000000" font-size="5px" font-weight="bold" font-family="'Helvetica Neue', Helvetica, Arial-Unicode, Arial, Sans-serif">from the Noun Project</text></svg>